<?xml version="1.0" encoding="utf-8"?>
<!-- Generator: Adobe Illustrator 25.2.1, SVG Export Plug-In . SVG Version: 6.00 Build 0)  -->
<svg version="1.1" id="Layer_1" xmlns="http://www.w3.org/2000/svg" xmlns:xlink="http://www.w3.org/1999/xlink" x="0px" y="0px"
	 viewBox="0 0 34.5 50" style="enable-background:new 0 0 34.5 50;" xml:space="preserve">
<style type="text/css">
	.st0{fill:#EC1C24;}
	.st1{fill-rule:evenodd;clip-rule:evenodd;fill:#FFFFFF;}
</style>
<g>
	<path class="st0" d="M30.4,4.1l-0.1-0.3L30,3.6C26.3,1.8,22.2,1,17.3,1C12.5,1,8.2,1.9,4.6,3.6L4.3,3.8L4.2,4.1
		C2,10.9,1,17.4,1,25.2c0,7.2,1.1,14.6,3.2,21.1l0.1,0.3l0.3,0.1c3.6,1.5,7.7,2.3,11.9,2.3c0.3,0,0.5,0,0.8,0
		c5.6-0.1,9.7-0.9,12.7-2.3l0.3-0.2l0.1-0.3c2.2-7.6,3.2-14.5,3.1-21.1C33.3,17.7,32.2,10.4,30.4,4.1z"/>
	<g>
		<path class="st1" d="M28.9,5.2L28.8,5l-0.2-0.1c-4-1.7-7.1-2.1-10.9-2.2c-0.2,0-0.4,0-0.5,0C13.8,2.7,9.1,3.4,6,5H5.8L5.7,5.2
			c-2.2,6-3,14.1-3,19.8c0,7,1.1,14.7,2.9,20.1l0.1,0.2l0.2,0.1c3.3,1.3,7,2,11.3,2h0.3c3.4,0,8.2-0.6,11.1-1.9l0.2-0.1l0.1-0.2
			c1.5-5.5,3-12.2,2.9-19.9C31.6,18.3,30.6,11.2,28.9,5.2z M28,44.7c-2.8,1.2-7.3,1.7-10.5,1.7h-0.3c-4,0-7.6-0.6-10.7-1.8
			C4.8,39.3,3.7,31.8,3.7,25c0-5.2,0.7-13.4,2.8-19.3c2.9-1.4,7.4-2.1,10.6-2.1c0.2,0,0.4,0,0.5,0c3.7,0.1,6.6,0.5,10.4,2.1
			c1.6,5.9,2.6,12.8,2.8,19.6C31,32.7,29.5,39.2,28,44.7z"/>
		<path class="st1" d="M18.1,25.9c-2.9,0-4.6,1.6-4.6,1.5c-0.1-8,0.7-11.9,1.3-14.6c0.3-1.6,1.4-3.4,3.1-4.8
			c0.7-0.6,1.3-1.1,1.4-1.2s0-0.3-0.2-0.2C18.9,6.7,18.6,7,18,7.3c-2.2,1.4-4.9,2.8-7.2,3.6c-0.6,0.2-1.4,0.6-1.6,0.7
			c-0.1,0.1-0.1,0.3,0.1,0.2c0.6-0.2,1.3-0.3,1.6-0.4c0.4-0.1,1.2-0.2,1.7,0.1c0.7,0.4,0.4,1.8,0.4,1.8c-0.6,4.1-1,7.7-0.9,12.6
			c0.2,6.8,1.4,11.6,2.9,17.3c0.1,0.5,0.6,0.4,0.5,0c-0.6-3.4-1-5.4-1.7-11.2c0-0.4-0.2-2.9-0.1-2.9c1.1-0.8,2.4-1.4,4.5-1.4
			c2.2,0,3.9,1.1,4.6,1.8L20,43.1c-0.1,0.4,0.4,0.5,0.5,0.1s3.9-14,3.7-14.3C23.2,27.4,21.3,26,18.1,25.9z"/>
	</g>
</g>
</svg>
