<?xml version="1.0" encoding="us-ascii" standalone="no"?><svg xmlns="http://www.w3.org/2000/svg" xmlns:xlink="http://www.w3.org/1999/xlink" contentStyleType="text/css" height="1567px" preserveAspectRatio="none" style="width:578px;height:1567px;background:#FFFFFF;" version="1.1" viewBox="0 0 578 1567" width="578px" zoomAndPan="magnify"><defs/><g><text fill="#000000" font-family="Verdana" font-size="22" font-weight="bold" lengthAdjust="spacing" textLength="545" x="15" y="37.1182">Kamp&#252;s Harita API - Kullan&#305;m Durumu (v3)</text><!--cluster Express + PostgreSQL API--><g id="cluster_Express + PostgreSQL API"><rect fill="#FFFFFF" height="1502" rx="2.5" ry="2.5" style="stroke:#000000;stroke-width:1.0;" width="247" x="228.25" y="59.7373"/><text fill="#000000" font-family="Verdana" font-size="14" font-weight="bold" lengthAdjust="spacing" textLength="208" x="247.75" y="75.8125">Express + PostgreSQL API</text></g><!--cluster Hatalar--><g id="cluster_Hatalar"><path d="M270.25,410.7373 L326.25,410.7373 A3.75,3.75 0 0 1 328.75,413.2373 L335.75,433.752 L433.25,433.752 A2.5,2.5 0 0 1 435.75,436.252 L435.75,622.2373 A2.5,2.5 0 0 1 433.25,624.7373 L270.25,624.7373 A2.5,2.5 0 0 1 267.75,622.2373 L267.75,413.2373 A2.5,2.5 0 0 1 270.25,410.7373 " fill="#FFFFFF" style="stroke:#000000;stroke-width:1.0;"/><line style="stroke:#000000;stroke-width:1.0;" x1="267.75" x2="335.75" y1="433.752" y2="433.752"/><text fill="#000000" font-family="Verdana" font-size="14" font-weight="bold" lengthAdjust="spacing" textLength="55" x="271.75" y="426.8125">Hatalar</text></g><!--cluster Events--><g id="cluster_Events"><path d="M269.25,648.7373 L322.25,648.7373 A3.75,3.75 0 0 1 324.75,651.2373 L331.75,671.752 L434.25,671.752 A2.5,2.5 0 0 1 436.75,674.252 L436.75,795.2373 A2.5,2.5 0 0 1 434.25,797.7373 L269.25,797.7373 A2.5,2.5 0 0 1 266.75,795.2373 L266.75,651.2373 A2.5,2.5 0 0 1 269.25,648.7373 " fill="#FFFFFF" style="stroke:#000000;stroke-width:1.0;"/><line style="stroke:#000000;stroke-width:1.0;" x1="266.75" x2="331.75" y1="671.752" y2="671.752"/><text fill="#000000" font-family="Verdana" font-size="14" font-weight="bold" lengthAdjust="spacing" textLength="52" x="270.75" y="664.8125">Events</text></g><!--cluster Units / Birimler--><g id="cluster_Units / Birimler"><path d="M273.25,1258.7373 L393.25,1258.7373 A3.75,3.75 0 0 1 395.75,1261.2373 L402.75,1281.752 L430.25,1281.752 A2.5,2.5 0 0 1 432.75,1284.252 L432.75,1470.2373 A2.5,2.5 0 0 1 430.25,1472.7373 L273.25,1472.7373 A2.5,2.5 0 0 1 270.75,1470.2373 L270.75,1261.2373 A2.5,2.5 0 0 1 273.25,1258.7373 " fill="#FFFFFF" style="stroke:#000000;stroke-width:1.0;"/><line style="stroke:#000000;stroke-width:1.0;" x1="270.75" x2="402.75" y1="1281.752" y2="1281.752"/><text fill="#000000" font-family="Verdana" font-size="14" font-weight="bold" lengthAdjust="spacing" textLength="119" x="274.75" y="1274.8125">Units / Birimler</text></g><!--cluster User Management--><g id="cluster_User Management"><path d="M254.75,821.7373 L394.75,821.7373 A3.75,3.75 0 0 1 397.25,824.2373 L404.25,844.752 L448.75,844.752 A2.5,2.5 0 0 1 451.25,847.252 L451.25,1176.2373 A2.5,2.5 0 0 1 448.75,1178.7373 L254.75,1178.7373 A2.5,2.5 0 0 1 252.25,1176.2373 L252.25,824.2373 A2.5,2.5 0 0 1 254.75,821.7373 " fill="#FFFFFF" style="stroke:#000000;stroke-width:1.0;"/><line style="stroke:#000000;stroke-width:1.0;" x1="252.25" x2="404.25" y1="844.752" y2="844.752"/><text fill="#000000" font-family="Verdana" font-size="14" font-weight="bold" lengthAdjust="spacing" textLength="139" x="256.25" y="837.8125">User Management</text></g><g id="elem_UC_Public"><ellipse cx="351.9402" cy="367.8056" fill="#FFFFFF" rx="99.1902" ry="27.0683" style="stroke:#000000;stroke-width:1.0;"/><text fill="#000000" font-family="Verdana" font-size="14" lengthAdjust="spacing" textLength="124" x="288.4306" y="363.2438">(GET) List Events</text><text fill="#000000" font-family="Verdana" font-size="14" lengthAdjust="spacing" textLength="112" x="294.4306" y="380.2585">(GET) List Units</text></g><g id="elem_UC_Register"><ellipse cx="351.8896" cy="278.7997" fill="#FFFFFF" rx="66.6396" ry="27.0623" style="stroke:#000000;stroke-width:1.0;"/><text fill="#000000" font-family="Verdana" font-size="14" lengthAdjust="spacing" textLength="58" x="322.8896" y="273.8602">Register</text><text fill="#000000" font-family="Verdana" font-size="14" lengthAdjust="spacing" textLength="78" x="312.8896" y="290.8748">(send mail)</text></g><g id="elem_UC_Verify"><ellipse cx="351.6094" cy="111.9092" fill="#FFFFFF" rx="68.8594" ry="16.1719" style="stroke:#000000;stroke-width:1.0;"/><text fill="#000000" font-family="Verdana" font-size="14" lengthAdjust="spacing" textLength="88" x="304.6094" y="116.1968">Verify E-mail</text></g><g id="elem_UC_Login"><ellipse cx="351.7475" cy="189.7997" fill="#FFFFFF" rx="52.4975" ry="27.0623" style="stroke:#000000;stroke-width:1.0;"/><text fill="#000000" font-family="Verdana" font-size="14" lengthAdjust="spacing" textLength="38" x="332.7475" y="184.8602">Login</text><text fill="#000000" font-family="Verdana" font-size="14" lengthAdjust="spacing" textLength="58" x="322.7475" y="201.8748">(JWT al)</text></g><g id="elem_UC_ViewCreator"><ellipse cx="351.8926" cy="1219.9658" fill="#FFFFFF" rx="101.6426" ry="22.7285" style="stroke:#000000;stroke-width:1.0;"/><text fill="#000000" font-family="Verdana" font-size="14" lengthAdjust="spacing" textLength="161" x="268.8926" y="1223.5337">View Data Creator Info</text></g><g id="elem_UC_Cron"><ellipse cx="351.8092" cy="1518.8153" fill="#FFFFFF" rx="102.0592" ry="27.078" style="stroke:#000000;stroke-width:1.0;"/><text fill="#000000" font-family="Verdana" font-size="14" lengthAdjust="spacing" textLength="128" x="285.2862" y="1514.4891">Purge past events</text><text fill="#000000" font-family="Verdana" font-size="14" lengthAdjust="spacing" textLength="79" x="309.7862" y="1531.5037">(cron daily)</text></g><g id="elem_UC_ErrList"><ellipse cx="351.8111" cy="593.9495" fill="#FFFFFF" rx="64.0611" ry="15.2122" style="stroke:#000000;stroke-width:1.0;"/><text fill="#000000" font-family="Verdana" font-size="14" lengthAdjust="spacing" textLength="74" x="311.8111" y="598.2371">List Errors</text></g><g id="elem_UC_ErrAdd"><ellipse cx="351.5061" cy="528.8694" fill="#FFFFFF" rx="60.7561" ry="15.1321" style="stroke:#000000;stroke-width:1.0;"/><text fill="#000000" font-family="Verdana" font-size="14" lengthAdjust="spacing" textLength="69" x="314.0061" y="533.157">Add Error</text></g><g id="elem_UC_ErrDel"><ellipse cx="351.5475" cy="462.6968" fill="#FFFFFF" rx="67.7975" ry="15.9595" style="stroke:#000000;stroke-width:1.0;"/><text fill="#000000" font-family="Verdana" font-size="14" lengthAdjust="spacing" textLength="85" x="306.0475" y="466.9844">Delete Error</text></g><g id="elem_UC_EvtAdd"><ellipse cx="351.9546" cy="699.8887" fill="#FFFFFF" rx="63.7046" ry="15.1514" style="stroke:#000000;stroke-width:1.0;"/><text fill="#000000" font-family="Verdana" font-size="14" lengthAdjust="spacing" textLength="73" x="312.4546" y="704.1763">Add Event</text></g><g id="elem_UC_EvtDel"><ellipse cx="351.9672" cy="765.9807" fill="#FFFFFF" rx="69.2172" ry="16.2434" style="stroke:#000000;stroke-width:1.0;"/><text fill="#000000" font-family="Verdana" font-size="14" lengthAdjust="spacing" textLength="89" x="304.4672" y="770.2683">Delete Event</text></g><g id="elem_UC_UnitAdd"><ellipse cx="351.6099" cy="1441.8247" fill="#FFFFFF" rx="54.8599" ry="15.0874" style="stroke:#000000;stroke-width:1.0;"/><text fill="#000000" font-family="Verdana" font-size="14" lengthAdjust="spacing" textLength="61" x="318.1099" y="1446.1123">Add Unit</text></g><g id="elem_UC_UnitEdit"><ellipse cx="351.873" cy="1309.8184" fill="#FFFFFF" rx="54.123" ry="15.0811" style="stroke:#000000;stroke-width:1.0;"/><text fill="#000000" font-family="Verdana" font-size="14" lengthAdjust="spacing" textLength="60" x="318.873" y="1314.106">Edit Unit</text></g><g id="elem_UC_UnitDel"><ellipse cx="351.8041" cy="1375.6481" fill="#FFFFFF" rx="65.0541" ry="15.4108" style="stroke:#000000;stroke-width:1.0;"/><text fill="#000000" font-family="Verdana" font-size="14" lengthAdjust="spacing" textLength="77" x="310.3041" y="1379.9357">Delete Unit</text></g><g id="elem_UC_UserList"><ellipse cx="351.7432" cy="1080.8744" fill="#FFFFFF" rx="61.4932" ry="15.1371" style="stroke:#000000;stroke-width:1.0;"/><text fill="#000000" font-family="Verdana" font-size="14" lengthAdjust="spacing" textLength="70" x="313.7432" y="1085.162">List Users</text></g><g id="elem_UC_UserVerify"><ellipse cx="351.8041" cy="1146.6481" fill="#FFFFFF" rx="65.0541" ry="15.4108" style="stroke:#000000;stroke-width:1.0;"/><text fill="#000000" font-family="Verdana" font-size="14" lengthAdjust="spacing" textLength="77" x="310.3041" y="1150.9357">Verify User</text></g><g id="elem_UC_UserUnverify"><ellipse cx="351.7946" cy="874.8462" fill="#FFFFFF" rx="71.0446" ry="16.6089" style="stroke:#000000;stroke-width:1.0;"/><text fill="#000000" font-family="Verdana" font-size="14" lengthAdjust="spacing" textLength="94" x="302.6535" y="878.9477">Unverify User</text></g><g id="elem_UC_UserDel"><ellipse cx="351.6591" cy="941.9191" fill="#FFFFFF" rx="66.4091" ry="15.6818" style="stroke:#000000;stroke-width:1.0;"/><text fill="#000000" font-family="Verdana" font-size="14" lengthAdjust="spacing" textLength="81" x="308.1591" y="946.2067">Delete User</text></g><g id="elem_UC_RoleChg"><ellipse cx="351.8826" cy="1011.8638" fill="#FFFFFF" rx="83.6326" ry="19.1265" style="stroke:#000000;stroke-width:1.0;"/><text fill="#000000" font-family="Verdana" font-size="14" lengthAdjust="spacing" textLength="125" x="289.3826" y="1015.4317">Change User Role</text></g><!--entity G--><g id="elem_G"><ellipse cx="151.75" cy="195.2373" fill="#FFFFFF" rx="16" ry="16" style="stroke:#000000;stroke-width:1.0;"/><path d="M151.75,215.2373 C155.75,215.2373 158.75,215.2373 162.75,211.2373 C170.75,211.2373 178.75,219.2373 178.75,227.2373 L178.75,231.2373 C178.75,235.2373 174.75,239.2373 170.75,239.2373 L132.75,239.2373 C128.75,239.2373 124.75,235.2373 124.75,231.2373 L124.75,227.2373 C124.75,219.2373 132.75,211.2373 140.75,211.2373 C144.75,215.2373 147.75,215.2373 151.75,215.2373 " fill="#FFFFFF" style="stroke:#000000;stroke-width:1.0;"/><text fill="#000000" font-family="Verdana" font-size="14" lengthAdjust="spacing" textLength="42" x="130.75" y="254.3125">Guest</text></g><!--entity N--><g id="elem_N"><ellipse cx="151.75" cy="336.7373" fill="#FFFFFF" rx="16" ry="16" style="stroke:#000000;stroke-width:1.0;"/><path d="M151.75,356.7373 C155.75,356.7373 158.75,356.7373 162.75,352.7373 C170.75,352.7373 178.75,360.7373 178.75,368.7373 L178.75,372.7373 C178.75,376.7373 174.75,380.7373 170.75,380.7373 L132.75,380.7373 C128.75,380.7373 124.75,376.7373 124.75,372.7373 L124.75,368.7373 C124.75,360.7373 132.75,352.7373 140.75,352.7373 C144.75,356.7373 147.75,356.7373 151.75,356.7373 " fill="#FFFFFF" style="stroke:#000000;stroke-width:1.0;"/><text fill="#000000" font-family="Verdana" font-size="14" lengthAdjust="spacing" textLength="49" x="127.25" y="395.8125">Normal</text><text fill="#000000" font-family="Verdana" font-size="14" lengthAdjust="spacing" textLength="32" x="127.25" y="412.8271">User</text></g><!--entity A--><g id="elem_A"><ellipse cx="151.75" cy="539.2373" fill="#FFFFFF" rx="16" ry="16" style="stroke:#000000;stroke-width:1.0;"/><path d="M151.75,559.2373 C155.75,559.2373 158.75,559.2373 162.75,555.2373 C170.75,555.2373 178.75,563.2373 178.75,571.2373 L178.75,575.2373 C178.75,579.2373 174.75,583.2373 170.75,583.2373 L132.75,583.2373 C128.75,583.2373 124.75,579.2373 124.75,575.2373 L124.75,571.2373 C124.75,563.2373 132.75,555.2373 140.75,555.2373 C144.75,559.2373 147.75,559.2373 151.75,559.2373 " fill="#FFFFFF" style="stroke:#000000;stroke-width:1.0;"/><text fill="#000000" font-family="Verdana" font-size="14" lengthAdjust="spacing" textLength="44" x="129.75" y="598.3125">Admin</text></g><!--entity S--><g id="elem_S"><ellipse cx="151.75" cy="989.2373" fill="#FFFFFF" rx="16" ry="16" style="stroke:#000000;stroke-width:1.0;"/><path d="M151.75,1009.2373 C155.75,1009.2373 158.75,1009.2373 162.75,1005.2373 C170.75,1005.2373 178.75,1013.2373 178.75,1021.2373 L178.75,1025.2373 C178.75,1029.2373 174.75,1033.2373 170.75,1033.2373 L132.75,1033.2373 C128.75,1033.2373 124.75,1029.2373 124.75,1025.2373 L124.75,1021.2373 C124.75,1013.2373 132.75,1005.2373 140.75,1005.2373 C144.75,1009.2373 147.75,1009.2373 151.75,1009.2373 " fill="#FFFFFF" style="stroke:#000000;stroke-width:1.0;"/><text fill="#000000" font-family="Verdana" font-size="14" lengthAdjust="spacing" textLength="76" x="113.75" y="1048.3125">Supervisor</text></g><!--entity CRON--><g id="elem_CRON"><ellipse cx="151.75" cy="1496.2373" fill="#F0FFFF" rx="16" ry="16" style="stroke:#000000;stroke-width:1.0;"/><path d="M151.75,1516.2373 C155.75,1516.2373 158.75,1516.2373 162.75,1512.2373 C170.75,1512.2373 178.75,1520.2373 178.75,1528.2373 L178.75,1532.2373 C178.75,1536.2373 174.75,1540.2373 170.75,1540.2373 L132.75,1540.2373 C128.75,1540.2373 124.75,1536.2373 124.75,1532.2373 L124.75,1528.2373 C124.75,1520.2373 132.75,1512.2373 140.75,1512.2373 C144.75,1516.2373 147.75,1516.2373 151.75,1516.2373 " fill="#F0FFFF" style="stroke:#000000;stroke-width:1.0;"/><text fill="#000000" font-family="Verdana" font-size="14" lengthAdjust="spacing" textLength="53" x="125.25" y="1555.3125">System</text></g><!--link G to UC_Public--><g id="link_G_UC_Public"><path d="M170.14,257.3873 C181.56,279.3573 198.43,305.6073 220.25,322.7373 C235.99,335.0973 249.6779,342.1923 268.6179,348.8323 " fill="none" id="G-to-UC_Public" style="stroke:#000000;stroke-width:1.0;"/><polygon fill="#000000" points="274.28,350.8173,267.1102,344.065,269.5616,349.1631,264.4635,351.6145,274.28,350.8173" style="stroke:#000000;stroke-width:1.0;"/></g><!--link G to UC_Register--><g id="link_G_UC_Register"><path d="M179.87,226.0873 C210.26,235.4573 254.5459,249.101 292.6259,260.831 " fill="none" id="G-to-UC_Register" style="stroke:#000000;stroke-width:1.0;"/><polygon fill="#000000" points="298.36,262.5973,290.9364,256.1251,293.5816,261.1254,288.5813,263.7706,298.36,262.5973" style="stroke:#000000;stroke-width:1.0;"/></g><!--link G to UC_Verify--><g id="link_G_UC_Verify"><path d="M179.88,180.4073 C191.05,167.4073 204.97,153.8173 220.25,144.7373 C241.55,132.0873 261.7059,125.4702 284.9059,120.6402 " fill="none" id="G-to-UC_Verify" style="stroke:#000000;stroke-width:1.0;"/><polygon fill="#000000" points="290.78,119.4173,281.1536,117.3356,285.885,120.4364,282.7842,125.1677,290.78,119.4173" style="stroke:#000000;stroke-width:1.0;"/></g><!--link G to UC_Login--><g id="link_G_UC_Login"><path d="M179.87,213.9073 C210.9,209.5173 256.4392,203.0782 294.7992,197.6482 " fill="none" id="G-to-UC_Login" style="stroke:#000000;stroke-width:1.0;"/><polygon fill="#000000" points="300.74,196.8073,291.2682,194.1082,295.7894,197.5081,292.3895,202.0292,300.74,196.8073" style="stroke:#000000;stroke-width:1.0;"/></g><!--link N to UC_Public--><g id="link_N_UC_Public"><path d="M179.87,367.7373 C198.93,367.7373 219.71,367.7373 246.43,367.7373 " fill="none" id="N-to-UC_Public" style="stroke:#000000;stroke-width:1.0;"/><polygon fill="#000000" points="252.43,367.7373,243.43,363.7373,247.43,367.7373,243.43,371.7373,252.43,367.7373" style="stroke:#000000;stroke-width:1.0;"/></g><!--link A to UC_Public--><g id="link_A_UC_Public"><path d="M165.5,522.0273 C176.31,493.6273 194.23,456.0873 220.25,430.7373 C239.17,412.3073 259.0044,400.7491 282.3344,390.7591 " fill="none" id="A-to-UC_Public" style="stroke:#000000;stroke-width:1.0;"/><polygon fill="#000000" points="287.85,388.3973,278.0021,388.2629,283.2537,390.3655,281.1511,395.6171,287.85,388.3973" style="stroke:#000000;stroke-width:1.0;"/></g><!--link A to UC_ErrList--><g id="link_A_UC_ErrList"><path d="M179.87,566.1173 C210.26,571.0273 254.3568,578.1607 292.4368,584.3107 " fill="none" id="A-to-UC_ErrList" style="stroke:#000000;stroke-width:1.0;"/><polygon fill="#000000" points="298.36,585.2673,290.1129,579.8835,293.424,584.4701,288.8374,587.7812,298.36,585.2673" style="stroke:#000000;stroke-width:1.0;"/></g><!--link A to UC_ErrAdd--><g id="link_A_UC_ErrAdd"><path d="M179.87,557.2173 C210.9,552.0473 256.4616,544.4532 294.8216,538.0632 " fill="none" id="A-to-UC_ErrAdd" style="stroke:#000000;stroke-width:1.0;"/><polygon fill="#000000" points="300.74,537.0773,291.2051,534.6105,295.808,537.8989,292.5196,542.5018,300.74,537.0773" style="stroke:#000000;stroke-width:1.0;"/></g><!--link A to UC_ErrDel--><g id="link_A_UC_ErrDel"><path d="M179.83,528.7173 C191.19,516.7673 205.24,504.1473 220.25,495.7373 C242.27,483.3973 263.0565,476.823 286.5365,471.923 " fill="none" id="A-to-UC_ErrDel" style="stroke:#000000;stroke-width:1.0;"/><polygon fill="#000000" points="292.41,470.6973,282.7827,468.6202,287.5154,471.7187,284.4169,476.4515,292.41,470.6973" style="stroke:#000000;stroke-width:1.0;"/></g><!--link A to UC_EvtAdd--><g id="link_A_UC_EvtAdd"><path d="M180.06,589.9273 C191.87,601.3973 206.2,614.3573 220.25,624.7373 C253.67,649.4273 290.5728,669.6556 317.7828,683.5056 " fill="none" id="A-to-UC_EvtAdd" style="stroke:#000000;stroke-width:1.0;"/><polygon fill="#000000" points="323.13,686.2273,316.9237,678.5799,318.674,683.9592,313.2948,685.7095,323.13,686.2273" style="stroke:#000000;stroke-width:1.0;"/></g><!--link A to UC_EvtDel--><g id="link_A_UC_EvtDel"><path d="M158.05,601.3273 C165.33,640.0973 182.18,698.0873 220.25,731.7373 C238.23,747.6273 256.8483,755.0617 279.7683,759.6817 " fill="none" id="A-to-UC_EvtDel" style="stroke:#000000;stroke-width:1.0;"/><polygon fill="#000000" points="285.65,760.8673,277.6178,755.1678,280.7486,759.8793,276.0371,763.0101,285.65,760.8673" style="stroke:#000000;stroke-width:1.0;"/></g><!--link S to UC_Public--><g id="link_S_UC_Public"><path d="M156.29,972.1873 C167.83,844.9073 204.49,452.8973 220.25,430.7373 C234.83,410.2373 252.4098,398.4647 275.1498,388.8947 " fill="none" id="S-to-UC_Public" style="stroke:#000000;stroke-width:1.0;"/><polygon fill="#000000" points="280.68,386.5673,270.8331,386.3715,276.0715,388.5068,273.9362,393.7452,280.68,386.5673" style="stroke:#000000;stroke-width:1.0;"/></g><!--link S to UC_ErrList--><g id="link_S_UC_ErrList"><path d="M156.43,972.0073 C164.44,892.4573 185.61,717.0873 220.25,668.7373 C242.78,637.2973 277.266,619.2909 307.096,607.8809 " fill="none" id="S-to-UC_ErrList" style="stroke:#000000;stroke-width:1.0;"/><polygon fill="#000000" points="312.7,605.7373,302.8649,605.2166,308.03,607.5236,305.723,612.6886,312.7,605.7373" style="stroke:#000000;stroke-width:1.0;"/></g><!--link S to UC_UnitAdd--><g id="link_S_UC_UnitAdd"><path d="M154.14,1051.3573 C158.12,1141.2873 172.52,1357.0573 220.25,1408.7373 C239.52,1429.5973 263.9322,1437.3773 290.5322,1440.5473 " fill="none" id="S-to-UC_UnitAdd" style="stroke:#000000;stroke-width:1.0;"/><polygon fill="#000000" points="296.49,1441.2573,288.0266,1436.2204,291.5251,1440.6656,287.0799,1444.1642,296.49,1441.2573" style="stroke:#000000;stroke-width:1.0;"/></g><!--link S to UC_UnitEdit--><g id="link_S_UC_UnitEdit"><path d="M156.92,1051.4473 C165.02,1120.6073 185.26,1258.8473 220.25,1290.7373 C241.74,1310.3173 268.03,1315.1695 295.11,1315.0695 " fill="none" id="S-to-UC_UnitEdit" style="stroke:#000000;stroke-width:1.0;"/><polygon fill="#000000" points="301.11,1315.0473,292.0953,1311.0806,296.11,1315.0658,292.1248,1319.0805,301.11,1315.0473" style="stroke:#000000;stroke-width:1.0;"/></g><!--link S to UC_UnitDel--><g id="link_S_UC_UnitDel"><path d="M155.69,1051.3673 C162.29,1129.6773 180.92,1300.2573 220.25,1341.7373 C237.57,1359.9973 257.4396,1367.8844 281.5296,1372.0944 " fill="none" id="S-to-UC_UnitDel" style="stroke:#000000;stroke-width:1.0;"/><polygon fill="#000000" points="287.44,1373.1273,279.263,1367.6377,282.5146,1372.2665,277.8858,1375.5182,287.44,1373.1273" style="stroke:#000000;stroke-width:1.0;"/></g><!--link S to UC_UserList--><g id="link_S_UC_UserList"><path d="M189.83,1033.5773 C199.52,1038.7073 210.09,1043.8073 220.25,1047.7373 C246.84,1058.0173 271.8712,1064.7034 296.9112,1070.2334 " fill="none" id="S-to-UC_UserList" style="stroke:#000000;stroke-width:1.0;"/><polygon fill="#000000" points="302.77,1071.5273,294.8444,1065.6806,297.8876,1070.4491,293.1192,1073.4923,302.77,1071.5273" style="stroke:#000000;stroke-width:1.0;"/></g><!--link S to UC_UserVerify--><g id="link_S_UC_UserVerify"><path d="M170.4,1051.2573 C181.77,1072.4273 198.51,1097.2773 220.25,1112.7373 C241.05,1127.5273 261.9041,1134.7229 285.7641,1139.4429 " fill="none" id="S-to-UC_UserVerify" style="stroke:#000000;stroke-width:1.0;"/><polygon fill="#000000" points="291.65,1140.6073,283.5973,1134.9368,286.7451,1139.637,282.0449,1142.7847,291.65,1140.6073" style="stroke:#000000;stroke-width:1.0;"/></g><!--link S to UC_UserUnverify--><g id="link_S_UC_UserUnverify"><path d="M169.83,972.2073 C181.15,950.4473 198.02,924.6973 220.25,908.7373 C239.74,894.7373 258.6816,887.7469 281.4116,882.9069 " fill="none" id="S-to-UC_UserUnverify" style="stroke:#000000;stroke-width:1.0;"/><polygon fill="#000000" points="287.28,881.6573,277.6443,879.6194,282.3896,882.6986,279.3104,887.444,287.28,881.6573" style="stroke:#000000;stroke-width:1.0;"/></g><!--link S to UC_UserDel--><g id="link_S_UC_UserDel"><path d="M189.78,989.2473 C199.46,983.9873 210.05,978.7473 220.25,974.7373 C245.7,964.7373 269.2844,958.2857 293.7644,952.8157 " fill="none" id="S-to-UC_UserDel" style="stroke:#000000;stroke-width:1.0;"/><polygon fill="#000000" points="299.62,951.5073,289.9643,949.5662,294.7403,952.5977,291.7089,957.3737,299.62,951.5073" style="stroke:#000000;stroke-width:1.0;"/></g><!--link S to UC_RoleChg--><g id="link_S_UC_RoleChg"><path d="M189.99,1011.7373 C212.06,1011.7373 234.95,1011.7373 262.14,1011.7373 " fill="none" id="S-to-UC_RoleChg" style="stroke:#000000;stroke-width:1.0;"/><polygon fill="#000000" points="268.14,1011.7373,259.14,1007.7373,263.14,1011.7373,259.14,1015.7373,268.14,1011.7373" style="stroke:#000000;stroke-width:1.0;"/></g><!--link S to UC_EvtAdd--><g id="link_S_UC_EvtAdd"><path d="M157.21,972.2073 C165.78,903.3273 186.73,765.3973 220.25,731.7373 C238.11,713.8073 258.3433,706.2621 282.5633,702.4421 " fill="none" id="S-to-UC_EvtAdd" style="stroke:#000000;stroke-width:1.0;"/><polygon fill="#000000" points="288.49,701.5073,278.9767,698.9583,283.5511,702.2863,280.2231,706.8606,288.49,701.5073" style="stroke:#000000;stroke-width:1.0;"/></g><!--link S to UC_EvtDel--><g id="link_S_UC_EvtDel"><path d="M160.63,972.0873 C169.71,934.8973 187.73,879.5273 220.25,841.7373 C245.56,812.3273 279.7091,793.8668 308.6591,781.5468 " fill="none" id="S-to-UC_EvtDel" style="stroke:#000000;stroke-width:1.0;"/><polygon fill="#000000" points="314.18,779.1973,304.3324,779.0409,309.5793,781.1552,307.465,786.4021,314.18,779.1973" style="stroke:#000000;stroke-width:1.0;"/></g><!--link S to UC_ViewCreator--><g id="link_S_UC_ViewCreator"><path d="M158.82,1051.3273 C166.64,1089.1073 183.83,1145.1173 220.25,1178.7373 C234.12,1191.5473 246.2733,1198.4338 264.2833,1204.4938 " fill="none" id="S-to-UC_ViewCreator" style="stroke:#000000;stroke-width:1.0;"/><polygon fill="#000000" points="269.97,1206.4073,262.7156,1199.746,265.2311,1204.8128,260.1643,1207.3283,269.97,1206.4073" style="stroke:#000000;stroke-width:1.0;"/></g><!--link CRON to UC_Cron--><g id="link_CRON_UC_Cron"><path d="M179.87,1518.7373 C198.19,1518.7373 217.64,1518.7373 243.31,1518.7373 " fill="none" id="CRON-to-UC_Cron" style="stroke:#000000;stroke-width:1.0;"/><polygon fill="#000000" points="249.31,1518.7373,240.31,1514.7373,244.31,1518.7373,240.31,1522.7373,249.31,1518.7373" style="stroke:#000000;stroke-width:1.0;"/></g><!--SRC=[XLNDRXCn4BxlKmpBeKrGnO4xKff6QMb9GxS18LL29facLdQzaUrD2QYlmRNFa4jFt1BUY_7-UEtT07lAVDytuvdnUF92Bp11MCMCYo36Umqw1Sdd2mqpBd6gUIe2jUHYnIHBW4rrAYEzYH7O0weqmI3GN9FPxLwoPBNxfU2SIQuPzCONS0ANMHmpiTycS9R9BCdWUFscq-q6mT59uuFUKk-UPOmIcbIG7ml339K6-p45mv89HwbCM7md9WfbQ9XHoVHc2HUUJwzaeco5SiqL_IoPg68sIcFY-lHlhaVmadtF9BOpXuZd-cY_fKBbVklb7vWcCZ6d5eM3Rok9Ii4h6ATApoL67wvCdqBu4GG0HuKZ355W32ZvxoUU51YncS8fKnJbU3YuxS0L7Gg3DGgjxeG3JGJNAc_1fFzbd7sD-THrli6voLQIZq8nWuJnk1E2znM-bTBr_aX9tMzWS6BS6bw-Tw5qVQ_IEHTqxBjFjy1QPxg-kT9jo3dJB6OIZlFRxDYMhDXqoUOKknIOFfemzPbvawHCfGhh-0GOmfVsPhD26Rgf44A4hpp363NMOgiaWfIFRkO3JKydvaiprKNsTFdrv1qefRZILYLvUeRoqrlhlwPNYQtoG7gdNF8ap-sVEUKp1Q-j_61sHXHwzsYGLdg36TUkjfOQvc0fLbrh3zHIRPefFS3FksU1cYVyVuNHke3tJ92HvEqwD3z6L8nFbG01xG4gtqQnWJojVGkEUYBMdhvMLypXLhIZ5wrmfFq5hPj22ZTfZDKoCB_xYpcqPdG9kv_VCQOnBH7loNDyW3DwNz2NoCnwl13tALH13LqIRinhdIPCKy0XhNHSjvVOE9EKuufHVx5QObEP2fZHPjbqd1hxX0QFhRLR_bt0ATi_qRth_POMWBTxWo4PRvqrQ6sxsYnINf6ronKqQaG8UWt0sjLESG4p-wvjRggsYwVhseOFeiO9KVC42rJFomFoH-GX9ceDLAFh8MNr7cR7q4EzO7QWeaPHKQCeQtlJal-fbeIvv3y0]--></g></svg>