<?xml version="1.0" encoding="utf-8"?>
<!-- Generator: Adobe Illustrator 16.0.0, SVG Export Plug-In . SVG Version: 6.00 Build 0)  -->
<svg version="1.2" baseProfile="tiny" id="Layer_1" xmlns="http://www.w3.org/2000/svg" xmlns:xlink="http://www.w3.org/1999/xlink"
	 x="0px" y="0px" width="800px" height="800px" viewBox="0 0 800 800" xml:space="preserve">
<g>
	<path fill="#FD1310" d="M139.074,400.008c0,27.346-4.306,53.679-12.243,78.393c-0.025,0.075-0.206,0.533-0.367,0.694
		c-0.227,0.222-0.574,0.357-0.645,0.387c-14.03,5.304-29.24,8.22-45.134,8.22c-16.02,0-31.34-2.967-45.466-8.355
		c-0.096-0.061-0.196-0.125-0.281-0.212c-0.132-0.125-0.268-0.432-0.338-0.595c-7.962-24.746-12.288-51.136-12.288-78.531v-0.011
		c0-27.398,4.326-53.78,12.288-78.53c0.07-0.163,0.206-0.468,0.338-0.597c0.085-0.088,0.186-0.156,0.281-0.211
		c14.126-5.389,29.446-8.36,45.466-8.36c15.894,0,31.104,2.913,45.134,8.224c0.07,0.033,0.418,0.161,0.645,0.388
		c0.161,0.167,0.342,0.615,0.367,0.695c7.938,24.707,12.243,51.046,12.243,78.392V400.008z"/>
	<path fill="#FFFFFF" d="M41.66,327.473c-7.201,23.521-10.867,47.908-10.867,72.535c0,24.616,3.666,49.001,10.867,72.52
		c12.682,4.411,25.791,6.698,39.025,6.698c13.275,0,26.39-2.282,39.04-6.679c7.196-23.513,10.863-47.902,10.863-72.55
		c0-24.646-3.667-49.034-10.863-72.534c-12.661-4.399-25.774-6.688-39.04-6.688C67.451,320.774,54.337,323.07,41.66,327.473
		 M80.686,318.3c13.96,0,27.77,2.43,41.05,7.198c7.519,24.113,11.331,49.178,11.331,74.499c0,25.322-3.813,50.387-11.331,74.515
		c-13.275,4.764-27.074,7.191-41.05,7.191c-13.925,0-27.724-2.438-41.029-7.213c-7.519-24.132-11.342-49.191-11.342-74.482
		c0-25.302,3.823-50.364,11.342-74.5C52.962,320.734,66.761,318.3,80.686,318.3"/>
	<path fill="#FFFFFF" d="M105.483,412.567c-5.217-6.109-12.942-10.017-21.519-10.017c-6.256,0-12.007,2.095-16.645,5.59
		c-0.303-14.887,0.518-30.262,2.98-44.783c2.689-15.646,4.356-18.699,11.423-25.815c3.494-3.522,6.662-6.839,7.695-7.809
		c0.316-0.31,0.02-0.586-0.368-0.271c0.211-0.161-3.979,2.977-8.884,6.008c-4.875,3.037-10.449,5.95-12.117,6.753
		c-7.579,3.581-10.731,4.954-13.32,5.979c-1.677,0.645-3.621,1.594-4.18,2.085c-0.55,0.483-0.231,0.469,0.563,0.37
		c3.596-0.469,6.477-1.517,9.338-1.517c2.12,0,3.822,0.144,3.822,4.267c0,3.629-3.294,22.892-3.294,45.365
		c0,16.208,5.056,46.063,11.23,67.047l0.011,0.041c0.201,0.755,0.896,1.757,1.385,1.571c0.488-0.188,0.594-1.058,0.337-2.227
		c-3.158-13.99-5.681-31.969-6.441-51.056c4.352-3.444,9.815-5.52,15.783-5.52c5.721,0,11.628,2.05,16.447,5.389
		c0.459,0.332,0.408,0.619,0.354,1.067c-0.091,0.675-8.783,50.623-8.783,50.623c-0.131,0.646,0,1.652,0.433,1.747
		c0.429,0.097,0.978-0.76,1.129-1.405c0.085-0.371,12.827-49.877,13.068-50.924C106.198,413.962,106.058,413.328,105.483,412.567"/>
	<polygon points="205.566,385.236 205.566,362.129 187.315,362.129 187.315,385.236 170.741,385.236 170.741,326.635 
		187.315,326.635 187.315,347.981 205.566,347.981 205.566,326.635 222.14,326.635 222.14,385.236 	"/>
	<path d="M263.794,358.198c-2.091-7.54-3.018-10.715-3.768-14.655c-0.75,3.94-1.677,7.198-3.768,14.655l-1.088,3.848h9.71
		L263.794,358.198z M271.997,385.236l-3.183-10.299h-17.581l-3.183,10.299h-17.41l21.263-58.602h16.413l21.262,58.602H271.997z"/>
	<path d="M319.86,386.158c-17.414,0-26.706-12.893-26.706-30.227c0-18.833,11.049-30.219,26.792-30.219
		c14.393,0,20.089,6.193,24.112,17.245l-14.74,5.777c-2.096-5.442-4.1-8.872-9.458-8.872c-6.778,0-9.709,6.782-9.709,16.068
		c0,8.959,2.845,16.075,9.875,16.075c5.111,0,7.288-2.76,10.471-8.287l13.724,7.287C340.286,378.705,333.76,386.158,319.86,386.158"
		/>
	<polygon points="353.563,385.236 353.563,326.635 398.429,326.635 398.429,340.284 369.632,340.284 369.632,348.065 
		386.962,348.065 386.962,361.547 369.632,361.547 369.632,371.592 399.018,371.592 399.018,385.236 	"/>
	<polygon points="439.659,340.78 439.659,385.234 423.413,385.234 423.413,340.78 407.01,340.78 407.01,326.631 456.066,326.631 
		456.066,340.78 	"/>
	<polygon points="496.567,340.78 496.567,385.234 480.32,385.234 480.32,340.78 463.918,340.78 463.918,326.631 512.975,326.631 
		512.975,340.78 	"/>
	<polygon points="521.999,385.236 521.999,326.635 566.871,326.635 566.871,340.284 538.074,340.284 538.074,348.065 
		555.403,348.065 555.403,361.547 538.074,361.547 538.074,371.592 567.46,371.592 567.46,385.236 	"/>
	<path d="M603.519,339.861h-8.788v13.145h8.536c5.278,0,7.368-2.265,7.368-6.698C610.635,342.455,608.711,339.861,603.519,339.861
		 M602.849,366.232h-8.118v19.004h-15.989v-58.602h25.195c13.729,0,22.859,5.274,22.859,19.421
		C626.796,360.957,616.914,366.232,602.849,366.232"/>
	<polygon points="635.493,385.236 635.493,326.635 680.365,326.635 680.365,340.284 651.568,340.284 651.568,348.065 
		668.897,348.065 668.897,361.547 651.568,361.547 651.568,371.592 680.953,371.592 680.953,385.236 	"/>
	<path d="M206.145,412.587c-4.013,0-7.528-3.343-7.528-7.201c0-4.102,3.516-7.364,7.528-7.364c3.854,0,7.373,3.263,7.373,7.364
		C213.518,409.244,209.998,412.587,206.145,412.587 M186.142,412.587c-3.938,0-7.448-3.343-7.448-7.201
		c0-4.102,3.51-7.364,7.448-7.364c3.933,0,7.448,3.263,7.448,7.364C193.59,409.244,190.074,412.587,186.142,412.587
		 M195.937,476.294c-14.735,0-25.538-7.362-25.538-25.951v-33.575h16.58v33.575c0,7.207,2.845,11.639,9.21,11.639
		c6.361,0,9.04-4.432,9.04-11.639v-33.575h16.574v33.575C221.803,468.932,210.673,476.294,195.937,476.294"/>
	<path d="M272.718,475.377l-13.98-19.338c-2.599-3.601-7.62-11.136-9.125-13.729c0.418,2.593,0.498,10.38,0.498,15.148v17.918
		h-15.566v-58.604h14.317l12.888,17.33c2.679,3.605,7.871,11.391,9.125,13.813c-0.418-2.594-0.498-10.38-0.498-15.153v-15.99h15.566
		v58.604H272.718z"/>
	<path d="M307.542,410.915c-4.1,0-7.866-3.601-7.866-7.624c0-4.352,3.767-7.781,7.866-7.781c4.186,0,7.866,3.43,7.866,7.781
		C315.408,407.314,311.728,410.915,307.542,410.915 M299.253,416.772h16.578v58.604h-16.578V416.772z"/>
	<path d="M360.995,475.377h-16.407l-20.175-58.604h18.246l4.275,15.738c2.004,7.282,4.85,19.167,5.938,24.777
		c1.088-5.61,3.938-17.405,5.947-24.777l4.271-15.738h18.08L360.995,475.377z"/>
	<polygon points="389.716,475.377 389.716,416.772 434.582,416.772 434.582,430.415 405.786,430.415 405.786,438.206 
		423.115,438.206 423.115,451.678 405.786,451.678 405.786,461.73 435.172,461.73 435.172,475.377 	"/>
	<path d="M472.237,430.002h-9.795v12.807h9.538c5.272,0,7.368-2.346,7.368-6.531C479.349,432.591,477.34,430.002,472.237,430.002
		 M478.513,475.377l-9.544-19.756h-6.526v19.756h-15.994v-58.604h26.202c13.734,0,22.859,5.188,22.859,19.092
		c0,8.788-4.104,14.227-10.551,17.152l11.724,22.36H478.513z"/>
	<path d="M528.194,476.294c-9.463,0-18.584-3.092-24.693-7.111l7.867-12.721c4.271,2.926,11.724,5.852,17.163,5.852
		c5.776,0,7.614-1.002,7.614-3.767c0-2.176-2.09-3.516-9.956-5.358c-14.151-3.263-20.931-7.115-20.931-18.835
		c0-11.049,8.955-18.503,23.101-18.503c9.967,0,17.163,2.428,23.363,6.784l-7.877,12.721c-5.187-3.51-10.374-5.524-16.321-5.524
		c-4.851,0-6.028,1.511-6.028,3.602c0,2.18,2.095,3.183,9.629,4.939c14.735,3.516,21.268,8.038,21.268,19.007
		C552.393,470.775,542.26,476.294,528.194,476.294"/>
	<path d="M571.792,410.915c-4.105,0-7.872-3.601-7.872-7.624c0-4.352,3.767-7.781,7.872-7.781c4.185,0,7.865,3.43,7.865,7.781
		C579.657,407.314,575.977,410.915,571.792,410.915 M563.502,416.772h16.578v58.604h-16.578V416.772z"/>
	<polygon points="621.83,430.919 621.83,475.377 605.594,475.377 605.594,430.919 589.182,430.919 589.182,416.768 638.238,416.768 
		638.238,430.919 	"/>
	<polygon points="647.268,475.377 647.268,416.772 692.139,416.772 692.139,430.415 663.343,430.415 663.343,438.206 
		680.672,438.206 680.672,451.678 663.343,451.678 663.343,461.73 692.729,461.73 692.729,475.377 	"/>
	<path d="M725.8,476.294c-9.462,0-18.587-3.092-24.696-7.111l7.871-12.721c4.266,2.926,11.72,5.852,17.159,5.852
		c5.775,0,7.618-1.002,7.618-3.767c0-2.176-2.096-3.516-9.961-5.358c-14.146-3.263-20.931-7.115-20.931-18.835
		c0-11.049,8.96-18.503,23.105-18.503c9.963,0,17.159,2.428,23.358,6.784l-7.872,12.721c-5.191-3.51-10.378-5.524-16.322-5.524
		c-4.854,0-6.026,1.511-6.026,3.602c0,2.18,2.09,3.183,9.622,4.939c14.736,3.516,21.269,8.038,21.269,19.007
		C749.994,470.775,739.861,476.294,725.8,476.294"/>
	<path d="M769.393,410.915c-4.1,0-7.871-3.601-7.871-7.624c0-4.352,3.771-7.781,7.871-7.781c4.19,0,7.871,3.43,7.871,7.781
		C777.264,407.314,773.583,410.915,769.393,410.915 M761.108,416.772h16.579v58.604h-16.579V416.772z"/>
</g>
</svg>
