<?xml version="1.0" encoding="utf-8"?>
<!-- Generator: Adobe Illustrator 24.0.3, SVG Export Plug-In . SVG Version: 6.00 Build 0)  -->
<svg version="1.1" id="Layer_1" xmlns="http://www.w3.org/2000/svg" xmlns:xlink="http://www.w3.org/1999/xlink" x="0px" y="0px"
	 viewBox="0 0 240 60" style="enable-background:new 0 0 240 60;" xml:space="preserve">
<style type="text/css">
	.st0{fill:#EC1C24;}
	.st1{fill-rule:evenodd;clip-rule:evenodd;fill:#FFFFFF;}
	.st2{fill:#FFFFFF;}
</style>
<g>
	<g>
		<path class="st0" d="M37.36,4.61L37.23,4.2l-0.39-0.18c-4.45-2.16-9.5-3.22-15.43-3.22c-5.85,0-11.03,1.08-15.43,3.22L5.62,4.2
			L5.51,4.59c-2.7,8.27-3.9,16.17-3.9,25.62c0,8.71,1.39,17.8,3.9,25.62l0.13,0.43l0.41,0.17c4.43,1.82,9.42,2.78,14.46,2.78
			c0.32,0,0.62,0,0.94-0.01c6.81-0.16,11.84-1.07,15.41-2.8l0.39-0.18l0.12-0.41c2.68-9.2,3.9-17.58,3.73-25.62
			C40.91,21.12,39.62,12.27,37.36,4.61z"/>
		<g>
			<path class="st1" d="M35.52,5.95l-0.07-0.26L35.2,5.58c-4.91-2.12-8.58-2.59-13.28-2.7c-0.22,0-0.44-0.01-0.67-0.01
				c-4.1,0-9.9,0.85-13.64,2.75L7.42,5.73L7.35,5.94c-2.7,7.28-3.64,17.19-3.61,24.04c0.04,8.56,1.4,17.91,3.56,24.4l0.09,0.26
				l0.24,0.1c3.95,1.59,8.57,2.4,13.72,2.4h0.34c4.15-0.02,9.92-0.74,13.51-2.27l0.26-0.11l0.07-0.27
				c1.84-6.72,3.7-14.85,3.49-24.16C38.83,21.89,37.59,13.23,35.52,5.95z M34.5,53.91c-3.45,1.4-8.89,2.04-12.82,2.08h-0.33
				c-4.9,0-9.29-0.74-13.05-2.23c-2.08-6.37-3.39-15.45-3.42-23.8C4.87,23.59,5.75,13.67,8.34,6.54c3.59-1.75,9.05-2.53,12.94-2.53
				c0.22,0,0.43,0,0.63,0.01c4.47,0.1,7.99,0.55,12.61,2.5c1.99,7.14,3.19,15.58,3.37,23.82C38.07,39.39,36.3,47.32,34.5,53.91z"/>
			<path class="st1" d="M22.39,31.08c-3.57-0.04-5.64,1.99-5.65,1.76c-0.17-9.73,0.9-14.48,1.56-17.72c0.4-1.99,1.69-4.13,3.75-5.9
				c0.84-0.72,1.56-1.36,1.67-1.5c0.12-0.13-0.01-0.36-0.28-0.22c-0.24,0.13-0.63,0.46-1.35,0.9c-2.72,1.64-5.97,3.34-8.82,4.43
				c-0.79,0.3-1.64,0.69-1.99,0.81c-0.18,0.06-0.16,0.34,0.1,0.28c0.78-0.19,1.54-0.39,1.9-0.45c0.46-0.09,1.45-0.19,2.07,0.09
				c0.81,0.51,0.55,2.14,0.55,2.14c-0.78,4.95-1.23,9.3-1.05,15.27c0.24,8.32,1.74,14.14,3.56,21.05c0.15,0.56,0.73,0.49,0.63-0.04
				c-0.79-4.13-1.26-6.53-2.02-13.61c-0.05-0.45-0.23-3.53-0.17-3.57c1.29-0.94,2.92-1.73,5.47-1.74c2.64,0.02,4.68,1.33,5.61,2.18
				l-3.19,16.73c-0.09,0.47,0.43,0.61,0.64,0.15c0.12-0.47,4.74-17.06,4.51-17.4C28.59,32.87,26.33,31.16,22.39,31.08z"/>
		</g>
	</g>
	<g>
		<path class="st2" d="M64.07,23.38h-5.24v-7.3h-5.76v7.3h-5.23V4.87h5.24v6.74h5.76V4.87h5.24v18.51H64.07z"/>
		<path class="st2" d="M85.33,23.38h-5.56l-1.01-3.25H73.2l-1.01,3.25h-5.5l6.71-18.51h5.18L85.33,23.38z M77.53,16.06l-0.34-1.22
			c-0.66-2.38-0.95-3.38-1.19-4.63c-0.24,1.24-0.54,2.27-1.19,4.63l-0.34,1.22C74.47,16.06,77.53,16.06,77.53,16.06z"/>
		<path class="st2" d="M102.59,18.89c-1.24,2.43-3.31,4.79-7.7,4.79c-5.5,0-8.44-4.07-8.44-9.55c0-5.95,3.49-9.55,8.46-9.55
			c4.55,0,6.35,1.96,7.61,5.45l-4.66,1.82c-0.66-1.71-1.3-2.8-2.99-2.8c-2.14,0-3.06,2.14-3.06,5.07c0,2.83,0.9,5.07,3.13,5.07
			c1.62,0,2.3-0.88,3.31-2.61L102.59,18.89z"/>
		<path class="st2" d="M119.74,23.38h-14.36V4.87h14.17v4.3h-9.1v2.46h5.47v4.26h-5.47v3.17h9.28v4.32H119.74z"/>
		<path class="st2" d="M137.75,9.35h-5.18v14.04h-5.13V9.35h-5.18V4.87h15.49C137.75,4.87,137.75,9.35,137.75,9.35z"/>
		<path class="st2" d="M155.46,9.35h-5.18v14.04h-5.13V9.35h-5.18V4.87h15.49V9.35z"/>
		<path class="st2" d="M172.8,23.38h-14.36V4.87h14.17v4.3h-9.1v2.46h5.47v4.26h-5.47v3.17h9.28v4.32H172.8z"/>
		<path class="st2" d="M191.26,11.01c0,4.71-3.13,6.37-7.56,6.37h-2.57v6.01h-5.05V4.87h7.95C188.38,4.87,191.26,6.54,191.26,11.01z
			 M186.17,11.09c0-1.22-0.61-2.03-2.25-2.03h-2.77v4.15h2.7C185.5,13.2,186.17,12.48,186.17,11.09z"/>
		<path class="st2" d="M208.41,23.38h-14.36V4.87h14.17v4.3h-9.1v2.46h5.47v4.26h-5.47v3.17h9.28v4.32H208.41z"/>
		<path class="st2" d="M63.96,47.21c0,5.87-3.51,8.2-8.17,8.2s-8.06-2.32-8.06-8.2v-10.6h5.24v10.6c0,2.27,0.9,3.67,2.91,3.67
			c2.01,0,2.86-1.4,2.86-3.67v-10.6h5.24v10.6H63.96z M55.05,33.01c0,1.22-1.11,2.27-2.36,2.27c-1.25,0-2.36-1.06-2.36-2.27
			c0-1.3,1.11-2.32,2.36-2.32C53.94,30.69,55.05,31.72,55.05,33.01z M61.35,33.01c0,1.22-1.11,2.27-2.32,2.27
			c-1.26,0-2.38-1.06-2.38-2.27c0-1.3,1.11-2.32,2.38-2.32C60.24,30.69,61.35,31.72,61.35,33.01z"/>
		<path class="st2" d="M83.84,55.12h-4.18l-4.41-6.1c-0.81-1.14-2.41-3.51-2.88-4.34c0.13,0.81,0.16,3.28,0.16,4.79v5.65h-4.91
			V36.61h4.52l4.07,5.47c0.85,1.13,2.48,3.6,2.88,4.37c-0.13-0.81-0.16-3.28-0.16-4.79v-5.05h4.91
			C83.84,36.61,83.84,55.12,83.84,55.12z"/>
		<path class="st2" d="M92.98,55.12h-5.24V36.61h5.24V55.12z"/>
		<path class="st2" d="M113.68,36.61l-6.37,18.51h-5.18l-6.38-18.51h5.76l1.35,4.97c0.63,2.3,1.53,6.06,1.87,7.83
			c0.34-1.78,1.24-5.5,1.87-7.83l1.35-4.97C107.96,36.61,113.68,36.61,113.68,36.61z"/>
		<path class="st2" d="M130.68,55.12h-14.36V36.61h14.17v4.3h-9.1v2.46h5.47v4.26h-5.47v3.17h9.28v4.32H130.68z"/>
		<path class="st2" d="M149.83,55.12h-5.74l-3.02-6.24h-2.07v6.24h-5.05V36.61h8.28c4.34,0,7.22,1.64,7.22,6.03
			c0,2.77-1.3,4.5-3.33,5.42L149.83,55.12z M144.35,42.76c0-1.17-0.63-1.98-2.25-1.98h-3.09v4.05h3.02
			C143.69,44.83,144.35,44.09,144.35,42.76z"/>
		<path class="st2" d="M167.62,49.43c0,4.23-3.2,5.97-7.64,5.97c-2.99,0-5.87-0.97-7.79-2.25l2.48-4.01
			c1.35,0.92,3.7,1.85,5.42,1.85c1.82,0,2.41-0.32,2.41-1.19c0-0.69-0.66-1.11-3.15-1.69c-4.46-1.03-6.61-2.25-6.61-5.95
			c0-3.49,2.83-5.85,7.3-5.85c3.15,0,5.42,0.77,7.38,2.14l-2.48,4.01c-1.64-1.11-3.28-1.74-5.16-1.74c-1.53,0-1.91,0.47-1.91,1.13
			c0,0.69,0.66,1.01,3.04,1.56C165.57,44.54,167.62,45.97,167.62,49.43z"/>
		<path class="st2" d="M176.22,55.12h-5.24V36.61h5.24V55.12z"/>
		<path class="st2" d="M194.84,41.07h-5.18v14.04h-5.13V41.07h-5.18v-4.46h15.49L194.84,41.07L194.84,41.07z"/>
		<path class="st2" d="M212.19,55.12h-14.36V36.61h14.17v4.3h-9.1v2.46h5.47v4.26h-5.47v3.17h9.28v4.32H212.19z"/>
		<path class="st2" d="M229.8,49.43c0,4.23-3.2,5.97-7.64,5.97c-2.99,0-5.87-0.97-7.79-2.25l2.48-4.01c1.35,0.92,3.7,1.85,5.42,1.85
			c1.82,0,2.41-0.32,2.41-1.19c0-0.69-0.66-1.11-3.15-1.69c-4.46-1.03-6.61-2.25-6.61-5.95c0-3.49,2.83-5.85,7.3-5.85
			c3.15,0,5.42,0.77,7.38,2.14l-2.48,4.01c-1.64-1.11-3.28-1.74-5.16-1.74c-1.53,0-1.91,0.47-1.91,1.13c0,0.69,0.66,1.01,3.04,1.56
			C227.73,44.54,229.8,45.97,229.8,49.43z"/>
		<path class="st2" d="M238.39,55.12h-5.24V36.61h5.24V55.12z"/>
		<path class="st2" d="M92.71,33.01c0,1.22-1.11,2.27-2.32,2.27c-1.26,0-2.38-1.06-2.38-2.27c0-1.3,1.11-2.32,2.38-2.32
			C91.6,30.69,92.71,31.72,92.71,33.01z"/>
		<path class="st2" d="M175.95,33.01c0,1.22-1.11,2.27-2.32,2.27c-1.26,0-2.38-1.06-2.38-2.27c0-1.3,1.11-2.32,2.38-2.32
			C174.85,30.69,175.95,31.72,175.95,33.01z"/>
		<path class="st2" d="M237.97,33.01c0,1.22-1.11,2.27-2.32,2.27c-1.26,0-2.38-1.06-2.38-2.27c0-1.3,1.11-2.32,2.38-2.32
			C236.86,30.69,237.97,31.72,237.97,33.01z"/>
	</g>
</g>
</svg>
