<?xml version="1.0" encoding="iso-8859-1"?>
<!-- Uploaded to: SVG Repo, www.svgrepo.com, Generator: SVG Repo Mixer Tools -->
<svg version="1.1" id="Layer_1" xmlns="http://www.w3.org/2000/svg" xmlns:xlink="http://www.w3.org/1999/xlink" 
	 viewBox="0 0 508 508" xml:space="preserve">
<circle style="fill:#84DBFF;" cx="254" cy="254" r="254"/>
<path style="fill:#FFFFFF;" d="M409.5,103.9h-311c-4.5,0-8.2,3.7-8.2,8.2v283.7c0,4.5,3.7,8.2,8.2,8.2h311c4.5,0,8.2-3.7,8.2-8.2
	V112.2C417.7,107.6,414,103.9,409.5,103.9z"/>
<path style="fill:#FF7058;" d="M417.7,169.1v-56.7c0-4.7-3.8-8.5-8.5-8.5H98.8c-4.7,0-8.5,3.8-8.5,8.5v56.7H417.7z"/>
<g>
	<rect x="230.6" y="188" style="fill:#E6E9EE;" width="46.7" height="41.8"/>
	<rect x="292.1" y="188" style="fill:#E6E9EE;" width="46.7" height="41.8"/>
	<rect x="353.6" y="188" style="fill:#E6E9EE;" width="46.7" height="41.8"/>
	<rect x="107.7" y="240.9" style="fill:#E6E9EE;" width="46.7" height="41.8"/>
	<rect x="169.2" y="240.9" style="fill:#E6E9EE;" width="46.7" height="41.8"/>
	<rect x="230.6" y="240.9" style="fill:#E6E9EE;" width="46.7" height="41.8"/>
	<rect x="292.1" y="240.9" style="fill:#E6E9EE;" width="46.7" height="41.8"/>
	<rect x="353.6" y="240.9" style="fill:#E6E9EE;" width="46.7" height="41.8"/>
	<rect x="107.7" y="293.7" style="fill:#E6E9EE;" width="46.7" height="41.8"/>
	<rect x="169.2" y="293.7" style="fill:#E6E9EE;" width="46.7" height="41.8"/>
	<rect x="230.6" y="293.7" style="fill:#E6E9EE;" width="46.7" height="41.8"/>
	<rect x="292.1" y="293.7" style="fill:#E6E9EE;" width="46.7" height="41.8"/>
	<rect x="353.6" y="293.7" style="fill:#E6E9EE;" width="46.7" height="41.8"/>
	<rect x="107.7" y="346.5" style="fill:#E6E9EE;" width="46.7" height="41.8"/>
	<rect x="169.2" y="346.5" style="fill:#E6E9EE;" width="46.7" height="41.8"/>
	<rect x="230.6" y="346.5" style="fill:#E6E9EE;" width="46.7" height="41.8"/>
</g>
<g>
	<circle style="fill:#FFFFFF;" cx="356.8" cy="136.5" r="16.9"/>
	<circle style="fill:#FFFFFF;" cx="151.2" cy="136.5" r="16.9"/>
</g>
</svg>